<svg xmlns="http://www.w3.org/2000/svg" version="1.1" xmlns:xlink="http://www.w3.org/1999/xlink" xmlns:svgjs="http://svgjs.dev/svgjs" viewBox="0 0 1422 800"><defs><filter id="uuunion-blur" x="-100%" y="-100%" width="400%" height="400%" color-interpolation-filters="sRGB">
        <feGaussianBlur in="SourceGraphic" stdDeviation="7.5 0" result="blur"></feGaussianBlur>
        <feDropShadow stdDeviation="12.307692307692308" in="blur" dx="10" dy="10" flood-color="hsl(205, 69%, 40%)" flood-opacity="0.25" x="0%" y="0%" width="100%" height="100%"></feDropShadow>
      </filter><filter id="uuunion-blur2" x="-100%" y="-100%" width="400%" height="400%" color-interpolation-filters="sRGB">
        <feGaussianBlur in="SourceGraphic" stdDeviation="7.5 0" result="blur"></feGaussianBlur>
        <feDropShadow stdDeviation="12.307692307692308" in="blur" dx="-10" dy="-10" flood-color="hsl(205, 69%, 40%)" flood-opacity="0.25" x="0%" y="0%" width="100%" height="100%"></feDropShadow>
      </filter><linearGradient gradientTransform="rotate(0, 0.5, 0.5)" x1="50%" y1="0%" x2="50%" y2="100%" id="uuunion-grad"><stop stop-color="hsl(205, 69%, 80%)" offset="10%"></stop><stop stop-color="hsl(205, 69%, 40%)" offset="90%"></stop></linearGradient><linearGradient gradientTransform="rotate(135, 0.5, 0.5)" x1="50%" y1="0%" x2="50%" y2="100%" id="uuunion-grad2"><stop stop-color="hsl(205, 69%, 80%)" offset="25%"></stop><stop stop-color="hsl(205, 69%, 40%)" offset="100%"></stop></linearGradient><linearGradient gradientTransform="rotate(333, 0.5, 0.5)" x1="50%" y1="0%" x2="50%" y2="100%" id="uuunion-grad3"><stop stop-color="hsl(205, 69%, 80%)" offset="0%"></stop><stop stop-color="hsl(205, 69%, 40%)" offset="75%"></stop></linearGradient></defs><path d="M-131.36 -88.79Q-118.38 -88.46 -105.4 -87.38 -92.41 -85.67 -79.43 -83.45 -66.44 -80.94 -53.46 -78.35 -40.48 -75.89 -27.49 -73.8 -14.51 -72.25 -1.53 -71.37 11.45 -71.24 24.43 -71.87 37.41 -73.22 50.4 -75.15 63.38 -77.5 76.36 -80.08 89.35 -82.64 102.33 -84.98 115.31 -86.88 128.3 -88.18 141.28 -88.77 154.27 -88.59 167.25 -87.67 180.23 -86.07 193.22 -83.95 206.2 -81.48 219.18 -78.88 232.17 -76.38 245.15 -74.2 258.13 -72.52 271.12 -71.49 284.1 -71.2 297.08 -71.68 310.07 -72.88 323.05 -74.7 336.03 -76.99 349.02 -79.53 362 -82.12 374.99 -84.52 387.97 -86.53 400.95 -87.96 413.94 -88.71 426.92 -88.69 439.9 -87.92 452.89 -86.45 465.87 -84.43 478.85 -82.02 491.84 -79.43 504.82 -76.89 517.8 -74.62 530.79 -72.82 543.77 -71.65 556.76 -71.2 569.74 -71.52 582.72 -72.57 595.71 -74.28 608.69 -76.48 621.67 -78.99 634.66 -81.58 647.64 -84.04 660.62 -86.15 673.61 -87.72 686.59 -88.61 699.58 -88.76 712.56 -88.14 725.54 -86.81 738.53 -84.89 751.51 -82.54 764.49 -79.97 777.48 -77.4 790.46 -75.06 803.44 -73.15 816.43 -71.83 829.41 -71.23 842.39 -71.39 855.38 -72.3 868.36 -73.87 881.35 -75.99 894.33 -78.45 907.31 -81.05 920.3 -83.55 933.28 -85.75 946.26 -87.44 959.25 -88.49 972.23 -88.79 985.21 -88.33 998.2 -87.14 1011.18 -85.33 1024.17 -83.06 1037.15 -80.52 1050.13 -77.93 1063.12 -75.52 1076.1 -73.51 1089.08 -72.05 1102.07 -71.29 1115.05 -71.29 1128.03 -72.05 1141.02 -73.5 1154 -75.51 1166.99 -77.92 1179.97 -80.5 1192.95 -83.05 1205.94 -85.32 1218.92 -87.13 1231.9 -88.33 1244.89 -88.79 1257.87 -88.49 1270.85 -87.45 1283.84 -85.76 1296.82 -83.56 1309.81 -81.06 1322.79 -78.46 1335.77 -76 1348.76 -73.89 1361.74 -72.3 1374.72 -71.39 1387.71 -71.23 1400.69 -71.83 1413.67 -73.14 1426.66 -75.05 1439.64 -77.39 1452.63 -79.96 1465.61 -82.53 1478.59 -84.88 1491.58 -86.8 1504.56 -88.13 1517.54 -88.76 1530.53 -88.62 1532.83 -73.84 1537.45 -59.06 1544.05 -44.28 1552.14 -29.5 1561.12 -14.72 1570.32 0.05 1579.08 14.83 1586.73 29.61 1592.72 44.39 1596.6 59.17 1598.08 73.95 1597.06 88.73 1593.61 103.51 1587.98 118.29 1580.6 133.07 1572.01 147.85 1562.83 162.63 1553.76 177.41 1545.46 192.19 1538.54 206.97 1533.52 221.75 1530.77 236.53 1530.49 251.31 1532.7 266.09 1537.24 280.86 1543.77 295.64 1551.81 310.42 1560.76 325.2 1569.98 339.98 1578.76 354.76 1586.46 369.54 1592.52 384.32 1596.49 399.1 1598.07 413.88 1597.14 428.66 1593.78 443.44 1588.24 458.22 1580.91 473 1572.35 487.78 1563.19 502.56 1554.1 517.34 1545.75 532.12 1538.78 546.9 1533.67 561.68 1530.83 576.46 1530.45 591.24 1532.57 606.02 1537.02 620.8 1543.49 635.58 1551.48 650.35 1560.41 665.13 1569.63 679.91 1578.44 694.69 1586.2 709.47 1592.33 724.25 1596.38 739.03 1598.06 753.81 1597.23 768.59 1593.96 783.37 1588.48 798.15 1581.22 812.93 1572.69 827.71 1563.54 842.49 1554.44 857.27 1541.21 856.9 1527.98 858.54 1514.74 862.05 1501.51 867.12 1488.28 873.32 1475.05 880.09 1461.82 886.86 1448.59 893.03 1435.36 898.07 1422.13 901.53 1408.9 903.11 1395.67 902.68 1382.44 900.27 1369.21 896.1 1355.98 890.53 1342.75 884.03 1329.52 877.19 1316.29 870.59 1303.06 864.8 1289.83 860.35 1276.6 857.6 1263.37 856.81 1250.13 858.03 1236.9 861.17 1223.67 865.95 1210.44 871.95 1197.21 878.66 1183.98 885.48 1170.75 891.82 1157.52 897.13 1144.29 900.95 1131.06 902.94 1117.83 902.94 1104.6 900.93 1091.37 897.1 1078.14 891.78 1064.91 885.44 1051.68 878.62 1038.45 871.92 1025.22 865.92 1011.99 861.15 998.76 858.02 985.53 856.81 972.3 857.61 959.06 860.37 945.83 864.83 932.6 870.62 919.37 877.23 906.14 884.07 892.91 890.56 879.68 896.13 866.45 900.29 853.22 902.69 839.99 903.11 826.76 901.51 813.53 898.04 800.3 893 787.07 886.82 773.84 880.05 760.61 873.28 747.38 867.09 734.15 862.02 720.92 858.52 707.69 856.89 694.46 857.28 681.23 859.64 668 863.78 654.76 869.33 641.53 875.8 628.3 882.65 615.07 889.26 601.84 895.07 588.61 899.56 575.38 902.35 562.15 903.19 548.92 902.01 535.69 898.91 522.46 894.16 509.23 888.18 496 881.49 482.77 874.67 469.54 868.31 456.31 862.97 443.08 859.11 429.85 857.07 416.62 857.03 403.39 858.99 390.16 862.78 376.93 868.07 363.7 874.4 350.47 881.22 337.24 887.93 324 893.94 310.77 898.75 297.54 901.92 284.31 903.18 271.08 902.42 257.85 899.71 244.62 895.28 231.39 889.51 218.16 882.92 204.93 876.08 191.7 869.57 178.47 863.97 165.24 859.77 152.01 857.33 138.78 856.87 125.55 858.42 112.32 861.85 99.09 866.86 85.86 873.01 72.63 879.78 59.4 886.56 46.17 892.77 32.94 897.87 19.71 901.41 6.48 903.08 -6.74 902.74 -19.97 900.43 -33.21 896.33 -46.44 890.81 -59.67 884.34 -72.9 877.5 -86.13 870.88 -99.36 865.04 -112.59 860.52 -125.82 857.69 -139.05 856.8 -141.97 842.02 -144.92 827.25 -147.66 812.47 -149.99 797.7 -151.75 782.92 -152.8 768.15 -153.07 753.37 -152.53 738.6 -151.23 723.82 -149.26 709.05 -146.76 694.27 -143.93 679.5 -140.97 664.72 -138.1 649.95 -135.53 635.17 -133.45 620.4 -132.02 605.62 -131.34 590.85 -131.46 576.07 -132.37 561.3 -134.01 546.52 -136.26 531.75 -138.94 516.97 -141.86 502.2 -144.81 487.42 -147.56 472.65 -149.91 457.87 -151.7 443.1 -152.78 428.32 -153.07 413.55 -152.57 398.77 -151.29 384 -149.34 369.22 -146.87 354.45 -144.04 339.67 -141.08 324.9 -138.2 310.12 -135.62 295.35 -133.52 280.57 -132.06 265.8 -131.35 251.02 -131.44 236.25 -132.33 221.47 -133.94 206.7 -136.16 191.92 -138.83 177.15 -141.75 162.37 -144.7 147.6 -147.46 132.82 -149.83 118.05 -151.64 103.27 -152.75 88.5 -153.08 73.72 -152.6 58.95 -151.35 44.17 -149.43 29.4 -146.97 14.62 -144.16 -0.14 -141.2 -14.92 -138.31 -29.69 -135.71 -44.47 -133.59 -59.24 -132.1 -74.02 -131.36 -88.79" fill="url(#uuunion-grad)"></path><path d="M-131.37 -88.79Q-132.11 -74.02 -133.6 -59.24 -135.72 -44.47 -138.32 -29.69 -141.21 -14.92 -144.17 -0.14 -146.98 14.62 -149.44 29.4 -151.36 44.17 -152.61 58.95 -153.09 73.72 -152.76 88.5 -151.65 103.27 -149.84 118.05 -147.47 132.82 -144.71 147.6 -141.76 162.37 -138.84 177.15 -136.17 191.92 -133.95 206.7 -132.33 221.47 -131.45 236.25 -131.36 251.02 -132.07 265.8 -133.53 280.57 -135.63 295.35 -138.21 310.12 -141.09 324.9 -144.05 339.67 -146.88 354.45 -145.79 376.74 -133.14 385.12 -124.05 386.56 -114.97 388.53 -105.89 390.94 -96.81 393.7 -87.72 396.71 -78.64 399.85 -69.56 402.99 -60.48 406.02 -51.39 408.81 -42.31 411.26 -33.23 413.27 -24.15 414.76 -6.98 415.91 -3.95 415.98 7.6 412.15 19.16 407.41 30.71 401.85 42.25 395.63 53.79 388.94 65.31 381.99 76.81 375.02 88.3 368.26 99.76 361.93 111.2 356.21 122.62 351.27 134.01 347.21 145.38 344.07 156.71 341.85 168.02 340.5 179.29 339.9 190.53 339.89 201.73 340.28 212.91 340.86 224.05 341.4 235.16 341.69 246.23 341.51 257.27 340.69 268.28 339.1 279.26 336.66 290.21 333.31 301.13 329.09 312.02 324.06 322.89 318.35 333.73 312.11 344.56 305.54 355.36 298.85 366.15 292.25 376.92 285.94 387.68 280.13 398.43 274.97 409.17 270.58 419.91 267.03 430.65 264.33 441.39 262.47 452.13 261.35 462.88 260.86 473.64 260.82 484.42 261.05 495.21 261.34 506.02 261.49 516.86 261.31 527.72 260.61 538.6 259.25 549.52 257.14 560.46 254.21 571.45 250.46 582.47 245.94 593.52 240.72 604.62 234.95 615.76 228.79 626.94 222.41 638.17 216.03 649.44 209.84 660.76 204.01 672.13 198.72 683.54 194.08 695.01 190.19 706.51 187.08 718.07 184.75 729.67 183.15 741.32 182.17 753.01 181.69 764.74 181.53 776.52 181.53 788.33 181.49 800.18 181.22 812.07 180.55 823.98 179.35 835.93 177.49 847.91 174.9 859.9 171.57 871.92 167.5 883.96 162.76 896 157.45 908.06 151.7 920.12 145.69 932.19 139.58 944.25 133.56 956.3 127.8 968.34 122.45 980.37 117.65 992.38 113.5 1004.36 110.04 1016.31 107.3 1028.24 105.25 1040.12 103.82 1051.96 102.89 1063.76 102.34 1075.51 102 1087.2 101.7 1098.84 101.28 1110.41 100.58 1121.93 99.44 1133.37 97.75 1144.75 95.43 1156.05 92.45 1167.27 88.78 1178.42 84.48 1189.49 79.61 1200.47 74.3 1211.38 68.66 1222.2 62.87 1232.93 57.07 1243.58 51.44 1254.14 46.12 1264.61 41.24 1275 36.9 1285.31 33.17 1295.53 30.09 1305.68 27.64 1315.74 25.77 1325.72 24.42 1335.63 23.46 1345.46 22.76 1355.23 22.17 1364.93 21.54 1374.57 20.72 1384.15 19.58 1393.68 17.99 1403.16 15.86 1412.6 13.15 1422 9.83 1412.56 -7.92 1404.07 -25.68 1397.38 -43.44 1393.16 -61.2 1391.84 -78.95 1393.54 -96.71 1398.1 -114.47 1405.06 -132.23 1392.93 -132.13 1380.8 -132.61 1368.67 -133.64 1356.54 -135.15 1344.4 -137.01 1332.27 -139.1 1320.14 -141.26 1308.01 -143.32 1295.88 -145.13 1283.75 -146.56 1271.62 -147.5 1259.49 -147.89 1247.36 -147.68 1235.23 -146.91 1223.09 -145.62 1210.96 -143.91 1198.83 -141.91 1186.7 -139.77 1174.57 -137.64 1162.44 -135.69 1150.31 -134.06 1138.18 -132.87 1126.05 -132.21 1113.91 -132.13 1101.78 -132.64 1089.65 -133.69 1077.52 -135.21 1065.39 -137.09 1053.26 -139.18 1041.13 -141.33 1029 -143.39 1016.87 -145.19 1004.74 -146.6 992.6 -147.53 980.47 -147.89 968.34 -147.67 956.21 -146.87 944.08 -145.56 931.95 -143.84 919.82 -141.84 907.69 -139.69 895.56 -137.57 883.42 -135.63 871.29 -134.01 859.16 -132.84 847.03 -132.2 834.9 -132.14 822.77 -132.67 810.64 -133.74 798.51 -135.27 786.38 -137.16 774.25 -139.26 762.11 -141.41 749.98 -143.46 737.85 -145.25 725.72 -146.65 713.59 -147.55 701.46 -147.89 689.33 -147.65 677.2 -146.83 665.07 -145.51 652.94 -143.78 640.8 -141.76 628.67 -139.61 616.54 -137.5 604.41 -135.56 592.28 -133.96 580.15 -132.81 568.02 -132.19 555.89 -132.15 543.76 -132.7 531.62 -133.79 519.49 -135.34 507.36 -137.23 495.23 -139.34 483.1 -141.49 470.97 -143.53 458.84 -145.31 446.71 -146.69 434.58 -147.57 422.45 -147.89 410.31 -147.63 398.18 -146.79 386.05 -145.45 373.92 -143.71 361.79 -141.68 349.66 -139.54 337.53 -137.42 325.4 -135.5 313.27 -133.91 301.14 -132.78 289 -132.18 276.87 -132.16 264.74 -132.73 252.61 -133.83 240.48 -135.4 228.35 -137.31 216.22 -139.41 204.09 -141.56 191.96 -143.6 179.82 -145.36 167.69 -146.73 155.56 -147.6 143.43 -147.89 131.3 -147.61 119.17 -146.75 107.04 -145.4 94.91 -143.64 82.78 -141.61 70.65 -139.46 58.51 -137.35 46.38 -135.44 34.25 -133.86 22.12 -132.74 9.99 -132.17 -2.13 -132.17 -14.26 -132.76 -26.39 -133.88 -38.52 -135.46 -50.65 -137.38 -62.79 -139.49 -74.92 -141.64 -87.05 -143.67 -99.18 -145.42 -111.31 -146.77 -123.44 -147.62 -139.06 -140.41 -138.05 -118.25 -134.31 -103.54 -131.37 -88.79" fill="url(#uuunion-grad2)" filter="url(#uuunion-blur)"></path><path d="M1408.47 334.54Q1417.25 333.73 1426.03 332.38 1434.82 330.55 1443.6 328.31 1452.38 325.75 1461.17 322.96 1469.95 320.06 1478.73 317.15 1487.51 314.36 1496.3 311.78 1505.08 309.53 1513.86 307.68 1522.65 306.31 1531.43 305.47 1540.21 305.2 1548.99 305.5 1559.24 322.74 1569.98 339.98 1580.13 357.23 1588.69 374.47 1594.79 391.71 1597.82 408.95 1597.47 426.2 1593.78 443.44 1587.12 460.68 1578.16 477.93 1567.8 495.17 1557.08 512.41 1547.07 529.65 1538.78 546.9 1533.04 564.14 1530.43 581.38 1531.2 598.63 1535.3 615.87 1542.29 633.11 1551.48 650.35 1561.95 667.6 1572.64 684.84 1582.49 702.08 1590.5 719.33 1595.87 736.57 1598.06 753.81 1596.85 771.05 1592.36 788.3 1585.04 805.54 1575.64 822.78 1565.08 840.03 1554.44 857.27 1542.3 856.85 1530.16 858.13 1518.03 861.02 1505.89 865.29 1493.76 870.65 1481.62 876.69 1469.49 882.98 1457.35 889.04 1445.21 894.44 1433.08 898.79 1420.94 901.75 1408.81 903.11 1396.67 902.78 1384.54 900.78 1372.4 897.25 1360.26 892.46 1348.13 886.75 1335.99 880.54 1323.86 874.3 1311.72 868.47 1299.59 863.49 1287.45 859.72 1275.31 857.44 1263.18 856.81 1251.04 857.88 1238.91 860.58 1226.77 864.7 1214.64 869.95 1202.5 875.93 1190.36 882.21 1178.23 888.33 1166.09 893.83 1153.96 898.32 1141.82 901.47 1129.69 903.04 1117.55 902.92 1105.41 901.11 1093.28 897.76 1081.14 893.1 1069.01 887.48 1056.87 881.31 1044.74 875.05 1032.6 869.15 1020.46 864.04 1008.33 860.1 996.19 857.63 984.06 856.8 971.92 857.66 959.79 860.17 947.65 864.13 935.51 869.26 923.38 875.17 911.24 881.44 899.11 887.6 886.97 893.21 874.84 897.84 862.7 901.16 850.56 902.94 838.43 903.02 826.29 901.42 814.16 898.24 802.02 893.73 789.89 888.21 777.75 882.08 765.61 875.8 753.48 869.83 741.34 864.61 729.21 860.51 717.07 857.85 704.94 856.81 692.8 857.47 680.66 859.78 668.53 863.58 656.39 868.58 644.26 874.42 632.12 880.67 619.99 886.87 607.85 892.56 595.71 897.34 583.58 900.84 571.44 902.81 559.31 903.1 547.17 901.7 535.04 898.71 522.9 894.34 510.76 888.93 498.63 882.85 486.49 876.57 474.36 870.53 462.22 865.19 450.09 860.94 437.95 858.09 425.81 856.84 413.68 857.29 401.54 859.41 389.41 863.04 377.27 867.92 365.14 873.68 353 879.9 340.86 886.13 328.73 891.91 316.59 896.82 304.46 900.49 292.32 902.65 280.19 903.16 268.05 901.96 255.91 899.16 243.78 894.94 231.64 889.63 219.51 883.61 207.37 877.33 195.24 871.24 183.1 865.8 170.96 861.39 158.83 858.35 146.69 856.9 134.56 857.15 122.42 859.07 110.29 862.53 98.15 867.26 86.02 872.94 73.88 879.13 61.74 885.38 49.61 891.24 37.47 896.27 25.34 900.11 6.49 897.76 -1.51 882.89 -2.8 872.74 -4.03 862.59 -5.16 852.44 -6.15 842.29 -7.03 827.07 -6.57 822 5.95 814.81 18.59 806.03 31.33 795.85 44.15 784.59 57.04 772.64 69.99 760.44 82.99 748.45 96.01 737.11 109.05 726.8 122.1 717.81 135.13 710.35 148.13 704.5 161.1 700.21 174.02 697.32 186.89 695.56 199.69 694.57 212.42 693.95 225.08 693.26 237.66 692.08 250.17 690.02 262.6 686.78 274.97 682.14 287.27 675.98 299.51 668.31 311.71 659.26 323.86 649.05 335.99 637.99 348.11 626.47 360.22 614.88 372.34 603.65 384.49 593.13 396.67 583.66 408.9 575.47 421.2 568.69 433.56 563.35 446.01 559.37 458.55 556.56 471.18 554.64 483.91 553.28 496.75 552.1 509.69 550.7 522.74 548.73 535.88 545.85 549.12 541.82 562.44 536.49 575.84 529.79 589.3 521.78 602.81 512.6 616.35 502.49 629.91 491.75 643.47 480.74 657.02 469.82 670.52 459.34 683.97 449.63 697.33 440.94 710.61 433.44 723.77 427.22 736.8 422.26 749.69 418.45 762.42 415.59 774.98 413.4 787.36 411.58 799.55 409.78 811.56 407.65 821.31 409.22 831.05 410.3 840.78 410.78 850.5 410.58 860.2 409.65 869.88 407.99 879.56 405.6 889.22 402.56 898.87 398.93 908.5 394.84 918.12 390.41 927.72 385.8 937.31 381.16 946.89 376.64 956.45 372.41 965.99 368.59 975.52 365.31 985.04 362.66 994.54 360.7 1004.03 359.46 1013.5 358.94 1022.95 359.11 1032.39 359.9 1041.82 361.2 1051.23 362.91 1060.63 364.89 1070.01 366.97 1079.38 369.02 1088.73 370.87 1098.07 372.38 1107.39 373.43 1116.7 373.9 1125.99 373.73 1135.27 372.86 1144.54 371.27 1153.8 368.99 1163.04 366.06 1172.26 362.56 1181.48 358.6 1190.68 354.31 1199.87 349.82 1209.04 345.3 1218.21 340.88 1227.36 336.72 1236.5 332.95 1245.63 329.68 1254.75 327.02 1263.86 325.02 1272.95 323.72 1282.04 323.11 1291.12 323.18 1300.19 323.84 1309.25 325.02 1318.3 326.59 1327.35 328.43 1336.39 330.4 1345.42 332.34 1354.44 334.1 1363.46 335.55 1372.47 336.56 1381.48 337.03 1390.48 336.88 1399.48 336.06 1408.47 334.54" fill="url(#uuunion-grad3)" filter="url(#uuunion-blur2)"></path></svg>